HIERARCHY
ROOT hip
{
  OFFSET 0 0 0
  CHANNELS 6 Xposition Yposition Zposition Zrotation Yrotation Xrotation
  JOINT abdomen
  {
    OFFSET 0 20.6881 -0.73152
    CHANNELS 3 Zrotation Xrotation Yrotation
    JOINT chest
    {
      OFFSET 0 11.7043 -0.48768
      CHANNELS 3 Zrotation Xrotation Yrotation
      JOINT neck
      {
        OFFSET 0 22.1894 -2.19456
        CHANNELS 3 Zrotation Xrotation Yrotation
        JOINT head
        {
          OFFSET -0.24384 7.07133 1.2192
          CHANNELS 3 Zrotation Xrotation Yrotation
          JOINT leftEye
          {
            OFFSET 4.14528 8.04674 8.04672
            CHANNELS 3 Zrotation Xrotation Yrotation
            End Site
            {
              OFFSET 1 0 0
            }
          }
          JOINT rightEye
          {
            OFFSET -3.6576 8.04674 8.04672
            CHANNELS 3 Zrotation Xrotation Yrotation
            End Site
            {
              OFFSET 1 0 0
            }
          }
        }
      }
      JOINT rCollar
      {
        OFFSET -2.68224 19.2634 -4.8768
        CHANNELS 3 Zrotation Xrotation Yrotation
        JOINT rShldr
        {
          OFFSET -8.77824 -1.95073 1.46304
          CHANNELS 3 Zrotation Xrotation Yrotation
          JOINT rForeArm
          {
            OFFSET -28.1742 -1.7115 0.48768
            CHANNELS 3 Zrotation Xrotation Yrotation
            JOINT rHand
            {
              OFFSET -22.5879 0.773209 7.07136
              CHANNELS 3 Zrotation Xrotation Yrotation
              JOINT rThumb1
              {
                OFFSET -1.2192 -0.487915 3.41376
                CHANNELS 3 Zrotation Xrotation Yrotation
                JOINT rThumb2
                {
                  OFFSET -3.37035 -0.52449 3.41376
                  CHANNELS 3 Zrotation Xrotation Yrotation
                  End Site
                  {
                    OFFSET -1.78271 -1.18214 1.43049
                  }
                }
              }
              JOINT rIndex1
              {
                OFFSET -7.75947 0.938293 5.60832
                CHANNELS 3 Zrotation Xrotation Yrotation
                JOINT rIndex2
                {
                  OFFSET -2.54057 -0.884171 1.56538
                  CHANNELS 3 Zrotation Xrotation Yrotation
                  End Site
                  {
                    OFFSET -1.62519 -0.234802 1.16502
                  }
                }
              }
              JOINT rMid1
              {
                OFFSET -8.24714 1.18213 3.41376
                CHANNELS 3 Zrotation Xrotation Yrotation
                JOINT rMid2
                {
                  OFFSET -3.10165 -0.590103 1.0647
                  CHANNELS 3 Zrotation Xrotation Yrotation
                  End Site
                  {
                    OFFSET -2.48547 -0.328903 0.83742
                  }
                }
              }
              JOINT rRing1
              {
                OFFSET -8.82822 0.546677 1.51678
                CHANNELS 3 Zrotation Xrotation Yrotation
                JOINT rRing2
                {
                  OFFSET -2.60934 -0.819778 -0.0198488
                  CHANNELS 3 Zrotation Xrotation Yrotation
                  End Site
                  {
                    OFFSET -2.33842 -0.294052 0.168128
                  }
                }
              }
              JOINT rPinky1
              {
                OFFSET -8.27202 -0.0477905 -0.4584
                CHANNELS 3 Zrotation Xrotation Yrotation
                JOINT rPinky2
                {
                  OFFSET -1.82734 -0.647385 -0.700984
                  CHANNELS 3 Zrotation Xrotation Yrotation
                  End Site
                  {
                    OFFSET -1.69225 -0.51767 -0.607171
                  }
                }
              }
            }
          }
        }
      }
      JOINT lCollar
      {
        OFFSET 2.68224 19.2634 -4.8768
        CHANNELS 3 Zrotation Xrotation Yrotation
        JOINT lShldr
        {
          OFFSET 8.77824 -1.95073 1.46304
          CHANNELS 3 Zrotation Xrotation Yrotation
          JOINT lForeArm
          {
            OFFSET 28.1742 -1.7115 0.48768
            CHANNELS 3 Zrotation Xrotation Yrotation
            JOINT lHand
            {
              OFFSET 22.5879 0.773209 7.07136
              CHANNELS 3 Zrotation Xrotation Yrotation
              JOINT lThumb1
              {
                OFFSET 1.2192 -0.487915 3.41376
                CHANNELS 3 Zrotation Xrotation Yrotation
                JOINT lThumb2
                {
                  OFFSET 3.37035 -0.52449 3.41376
                  CHANNELS 3 Zrotation Xrotation Yrotation
                  End Site
                  {
                    OFFSET 1.78271 -1.18214 1.43049
                  }
                }
              }
              JOINT lIndex1
              {
                OFFSET 7.75947 0.938293 5.60832
                CHANNELS 3 Zrotation Xrotation Yrotation
                JOINT lIndex2
                {
                  OFFSET 2.54057 -0.884171 1.56538
                  CHANNELS 3 Zrotation Xrotation Yrotation
                  End Site
                  {
                    OFFSET 1.62519 -0.234802 1.16502
                  }
                }
              }
              JOINT lMid1
              {
                OFFSET 8.24714 1.18213 3.41376
                CHANNELS 3 Zrotation Xrotation Yrotation
                JOINT lMid2
                {
                  OFFSET 3.10165 -0.590103 1.0647
                  CHANNELS 3 Zrotation Xrotation Yrotation
                  End Site
                  {
                    OFFSET 2.48547 -0.328903 0.83742
                  }
                }
              }
              JOINT lRing1
              {
                OFFSET 8.82822 0.546677 1.51678
                CHANNELS 3 Zrotation Xrotation Yrotation
                JOINT lRing2
                {
                  OFFSET 2.60934 -0.819778 -0.0198488
                  CHANNELS 3 Zrotation Xrotation Yrotation
                  End Site
                  {
                    OFFSET 2.33842 -0.294052 0.168128
                  }
                }
              }
              JOINT lPinky1
              {
                OFFSET 8.27202 -0.0477905 -0.4584
                CHANNELS 3 Zrotation Xrotation Yrotation
                JOINT lPinky2
                {
                  OFFSET 1.82734 -0.647385 -0.700984
                  CHANNELS 3 Zrotation Xrotation Yrotation
                  End Site
                  {
                    OFFSET 1.69225 -0.51767 -0.607171
                  }
                }
              }
            }
          }
        }
      }
    }
  }
  JOINT rButtock
  {
    OFFSET -8.77824 4.35084 1.2192
    CHANNELS 3 Zrotation Xrotation Yrotation
    JOINT rThigh
    {
      OFFSET 0 -1.70687 -2.19456
      CHANNELS 3 Zrotation Xrotation Yrotation
      JOINT rShin
      {
        OFFSET 0 -36.8199 0.73152
        CHANNELS 3 Zrotation Xrotation Yrotation
        JOINT rFoot
        {
          OFFSET 0.73152 -45.1104 -5.12064
          CHANNELS 3 Zrotation Xrotation Yrotation
          End Site
          {
            OFFSET -1.1221 -3.69964 12.103
          }
        }
      }
    }
  }
  JOINT lButtock
  {
    OFFSET 8.77824 4.35084 1.2192
    CHANNELS 3 Zrotation Xrotation Yrotation
    JOINT lThigh
    {
      OFFSET 0 -1.70687 -2.19456
      CHANNELS 3 Zrotation Xrotation Yrotation
      JOINT lShin
      {
        OFFSET 0 -36.8199 0.73152
        CHANNELS 3 Zrotation Xrotation Yrotation
        JOINT lFoot
        {
          OFFSET -0.73152 -45.1104 -5.12064
          CHANNELS 3 Zrotation Xrotation Yrotation
          End Site
          {
            OFFSET 1.1221 -3.69964 12.103
          }
        }
      }
    }
  }
}
MOTION
Frames:	4
Frame Time:	0.03333
0.03916453570127487 61.81463003158569 -0.0012573087587952614 -6.444138340387168 5.236504972955084 2.513781328027612 -2.3501509129684397 14.762871617355819 3.8962737280709576 2.5929910318322498 -9.713337523401131 1.2265869289354576 -4.858295200496675 15.28894644760854 -3.4845129991923884 8.45926954178354 -24.926529489151413 -5.169026545936766 0.011833062613209083 0.017548516885908153 -0.0034533676567422475 -0.0038123127739249293 -0.014342490122527635 0.0181871128928779 0.05872369864752178 -0.06480515501019833 0.027004183415116862 49.29057923977394 30.1332817311951 15.789703474155317 -23.872651790785955 -29.474984683894686 66.45797285065585 -4.720541810881743 -11.25577438422937 -5.136417088405009 0.0030371930248342636 -0.03744229661721654 0.022831268002516333 0.026680106280244965 -0.0003333986088612474 -0.019114231031427793 -0.07170567378432105 0.018817384606796692 0.0190359506602371 7.68554229750991 5.431118406749904 0.41457850207631664 0.023785813619452062 -0.0044310585436193265 -0.002339339790729367 2.9135604109980977 0.9613275678947268 0.08208441303241988 -0.03728920433027305 -0.00903415247695835 0.02663869825840176 10.215808073655937 0.7035563353401514 0.03582204768004258 -0.02515617368253876 0.02142854458215141 -0.008249881341596925 2.16051135099327 -0.7364521805693724 -0.2145912835498573 -0.00802675293523436 -0.0038590035202043134 -0.0037598056946804566 -58.42735744344584 32.160898518394255 -25.671598967214962 23.00754344560673 -27.443421754902555 -62.422779051282355 5.091694717267059 -13.622591172216053 4.107881099407592 -0.006561037028031936 0.027797856065746973 -0.008436297481170672 -0.025434770695481234 -0.008339687657012014 -0.008879992972957046 -0.015428650283118335 0.006077561020415526 -0.007164815078490485 -7.698537586179506 5.482058384466682 -0.4276979347701624 0.01507625521062799 -0.04652890281256647 0.0001962078560791944 -2.8954849556898936 0.9478018723473975 -0.09539130240247078 0.0030274813496081517 -0.002572313274450271 -0.054938333104306666 -10.222689489244724 0.7071508291125764 -0.04379869477441255 -0.021042425450634127 -0.016605870739167056 -0.0215706978942523 -2.2398836986775192 -0.7234178317554609 0.18266236365544264 -0.042900044650879855 0.010354726864298003 0.005346117129415918 -31.80187303976712 -35.67812833715442 -27.743029710392456 -5.354948564012744 62.139749672455366 6.3186541049556935 -4.74780877982208 -10.183707038330523 -10.377074816375462 0.015633289153954264 0.03266313854976457 0.06664236917522598 37.717028596862434 -34.246295290877136 31.05573975974034 5.407680612613005 63.34321534383327 -6.5744481044672565 5.0123035865625925 -10.125345633193703 13.913745914834417
0.06120717152953148 62.78476119041443 -0.07894965820014477 -6.857898393701847 5.330380800455032 1.8863057228002922 -2.4529868814423863 14.883876956239057 3.8481580335759795 2.607520338300748 -9.786149901274406 1.1703487521351594 -4.967246963042133 15.428736514256606 -3.556130947734557 8.431637157722607 -24.908330450107915 -5.205606477810416 -0.015267447146535456 0.00877503217532099 -0.02963999276945379 -0.016804079627229653 0.043414603355305115 0.0014897282910032498 0.07664524791577576 -0.09854548909726796 0.05786142728544733 49.35419562170344 30.21057556693755 16.300019350445528 -24.0873604948926 -29.486616496051216 66.43997530219286 -4.871506920785595 -11.57185504845005 -5.316073261691147 0.03610694127362616 -0.12266310049999454 0.0549504726983393 0.04860485343342722 0.026553427615482385 -0.003429555376139762 -0.1083263733495791 0.05998752376781214 0.01293557787521079 7.838737464177773 5.463045699138305 0.3792619417557079 0.07608830735394205 -0.003476272802845591 -0.04265981409116581 2.9352846814269693 0.943388716369923 0.06142213029777928 -0.03158186090721337 -0.020717778021646958 -0.026632828564583783 10.42860090970039 0.7531143736887657 0.09082014493958686 -0.013537701739229725 0.05256364174853719 -0.07762459298909245 2.1712567326615813 -0.7369408592601456 -0.21956723644277026 -0.003780402983896276 -0.05436328987312977 0.01868014049316175 -58.723821804370246 32.415183046099244 -25.448885281401065 23.20551306360496 -27.536447223850836 -62.46363724289737 4.897816809468485 -13.396527278614263 4.282385175625425 0.0004210171293078172 0.05893999686471433 -0.017212236790990806 0.004281247949128618 0.040105883630536396 0.00974337157272897 -0.020499532133323894 0.02777877956083854 0.0392023509889642 -7.780288120355388 5.584562875322471 -0.4217543895317819 0.06836133569024777 -0.08992739119029859 -0.019930331915538536 -2.9011294667086744 0.9495683300214921 -0.1290522889012919 0.017349907791448873 -0.04834023696394212 -0.030862609971099297 -10.34856987564806 0.6870900832725729 -0.014921828902362232 -0.02466896241522 -0.0435176431622371 0.0032338811285894747 -2.2748316422263586 -0.6672267725882651 0.18296321214404054 -0.04350259540172192 0.014204979204628237 -0.038715299804204115 -31.56105423001081 -35.66856265722181 -27.120230863755893 -4.830877113620952 62.036606985799004 5.797559336381557 -4.848144258729567 -10.246555023978395 -10.337937832431288 -0.00467094225778958 0.03410382154685463 0.07951855642116938 37.9164018187351 -34.18812598481072 30.652051674130494 5.286054580288941 63.32589398409812 -6.475320288382392 4.97873192613151 -10.037673325007418 13.86201662338168
0.009498652070760727 65.27243852615356 -0.3783788299188018 -11.384364648185908 -26.037982267125493 9.994343458686505 6.838003760196892 13.051169862289969 10.495386499404775 -1.2329242772681717 -7.386845318500559 2.6418413985498272 -3.356297755309967 12.739960830494802 0.23548405848855938 6.006332606099459 -24.14664141424643 1.3324736440908729 0.15722801984678453 0.06741956999757938 0.04420395711190438 0.14652676760381417 0.09251229762603107 0.10907894813832344 0.11979994389686338 -0.23814393692260333 0.17498001500497826 52.984809995780395 43.04901577243289 15.312406439860242 -21.18745512614924 -17.186702555665534 44.2174494035578 0.966351278750977 11.106197510274322 2.3376578566462514 -0.030139597094856422 -0.01672419843045224 -0.1028642230455523 0.0464982736830072 0.27605303428090794 0.05165255854628096 -0.11835938763179893 0.23310026910737203 -0.041570238835990106 7.683085990729644 5.344331461834782 0.4645372804301402 -0.0840972377643109 -0.06949821534151111 -0.028354276359265004 2.8358627403209713 0.9836327245681671 0.09600135035314399 -0.030838144020048898 0.0933703935013668 -0.019681296815097525 10.16773890982468 0.654089223884863 0.02700574088501061 0.023636723396475375 0.0003179239615229373 -0.026718432712833726 2.083088168543414 -0.6884620441612463 -0.15428983788448902 -0.12848140781664047 -0.052108793838496655 -0.10014508738437321 -65.41091851127123 28.062253969178634 -16.29999202968885 18.32830891127793 -13.039266550113929 -36.85108355350987 -0.8139604202187367 8.111521559249741 -0.7320901442889672 0.10655548672469463 -0.029877862111427417 -0.17146757688408595 -0.07935527221132377 0.10905931134445965 0.058995652234279355 0.02627616462386218 0.16590489473321304 0.1992616443292777 -7.627442147108843 5.366293935110959 -0.40806874482791267 0.22197046251462305 0.003062112543134232 0.04362919402520516 -2.8810534063038915 0.5887753265032045 -0.17459919193811035 -0.05931218881362713 0.09927743991637003 -0.19430799627287307 -10.128764142873294 0.8061360116376639 0.18419366005084778 0.2246525790841092 -0.050445162527922534 -0.010742820347372242 -2.3443958382624692 -0.45704963219166084 0.1657897686931013 -0.11356091293560051 -0.0806759533203692 -0.12343528540217621 -3.9251304235406153 -3.4068138344113814 -7.429356415894718 0.45833722957191403 48.21416874733661 0.7478247123417081 -12.874306382600722 -19.369543929489694 -31.270648246880207 0.08920168359098472 0.06066536668208302 0.09996632852718929 50.45074834200314 -54.57617235540708 40.740104474455926 -0.42267264976875196 64.79407046694904 0.12063341373859005 -1.0522349311483636 2.696521758610834 1.8555773420546393
-0.07768906652927399 66.17029905319214 -0.5774883553385735 -11.204261097509134 -26.76419359289064 4.8359882295542365 5.665688020302475 14.76107186250952 13.15060034113243 -1.3635068220282374 -7.455573243250166 3.6492765853235483 -3.502755794135258 13.548820860311684 -0.9704672147778501 7.279157994725199 -25.891372256591172 2.6328635417726685 0.23413680367477438 -0.0689411013569055 -0.16261619866849156 0.0912723514874093 -0.007662565114255164 -0.07393927904504745 0.03723505640480219 -0.10380244024150347 0.03955927172879034 54.94226024963601 48.57176330133262 17.22150236948675 -21.122689564891886 -14.984202189862788 42.709896880141756 0.3529294280711931 11.327060214823147 3.0914669886396546 0.1647623054706904 0.12899367200439144 0.22714439751197382 -0.0375144404903248 0.03543101935005935 0.017406950543189057 -0.04477615887766484 0.15739018347871944 0.03657913146085618 8.005785108256067 5.302010329076914 0.3455736345002067 0.052610812742492595 0.0958812617537134 0.008654143163097055 3.1735993730788232 1.166582116251309 -0.11425129565030072 0.10826559533813657 0.1733072456483466 -0.1686587149487711 10.616444772254082 0.6817637630195795 -0.02726406077385461 0.02439391389899476 0.25700923957529587 -0.05231590064877878 1.9282650689755614 -0.46654652998488755 -0.0531745701532831 -0.16168370442401295 -0.030716267832046482 0.10253138472564641 -64.7125384988266 30.38833124008713 -18.363342659078217 18.29013156891214 -11.449263398132077 -34.19092294727584 1.6043893446428985 3.8230494044133665 0.889931867304848 0.18558499092912054 -0.1675944860987185 -0.17368488040425425 -0.16885284173158757 -0.14483274728751877 0.033682864448506315 -0.16454736795524655 0.3729337981701175 -0.022529005451316825 -7.78327376679633 5.793538062507712 -0.5259101586607013 0.5682336926569498 -0.08765411213544794 -0.16550487509951772 -2.7760529081932854 1.0081132964922563 -0.10553157199900096 -0.008318743522252404 -0.08974292272185536 0.12257564206210664 -10.357232263062928 0.6188406986516899 0.28738703951745653 0.07138825675090057 -0.041665861484370285 0.0821631202904337 -2.3196509166731594 -0.5051141002678636 0.041458234405772475 -0.062308454064294215 -0.018047494221289317 -0.043358200933799614 -5.566891895279179 -5.8073683418033415 -9.630452324049381 0.8809543306928067 52.17012893724337 0.6801695541786161 -13.615036982994019 -19.903353948977454 -30.033393629678248 0.221846331830586 -0.16254244062958337 0.03536063638509648 52.93369969022119 -53.629545702483746 42.853966060304835 -1.362694456403829 65.27598129402845 -0.3523093749606029 0.9004982233117106 3.5249741860618977 1.5228243995133697
